<?xml version="1.0"?>
<svg width="704.2" height="85.9" xmlns="http://www.w3.org/2000/svg" xmlns:svg="http://www.w3.org/2000/svg">
  <style type="text/css">
    .st0{fill:#FFAA00;}
    .st1{fill:#125F9B;}
  </style>
<g>
  <g>
    <g>
      <path class="st0" d="M0,22.6c0-3.5,1.5-5.4,5-5.4c3,0,12.1,0,12.1,0v5.7l-11.4,0v17.2l40.5,0l0,5.8H26.3l0,34.2h23l0.1-11.3
        l-20.6,0V63l40.7,0l0-17.2l-11.7,0v-5.7c0,0,8.7-0.1,12.5,0c2.8,0.1,4.8,2.3,4.9,5.4c0.1,6,0.1,11.9,0,17.9
        c-0.1,3.2-2.4,5.2-5.6,5.3c-4.3,0-14.6,0-14.6,0s0,7.5,0,10.5c0,4.3-2,6.7-5.8,6.7c-11.7,0-34.6,0-34.6,0l-0.1-5.7l5.8,0l0-34.3
        c0,0-9.1-0.1-13,0C3.8,46,1.2,45,0,41.5C0,34.9,0,29.2,0,22.6z"/>
      <path class="st0" d="M49.8,0C52.7,0,55,1.2,55,5.4c0,3.2,0,11.8,0,11.8s9.8,0,14,0.1c4.1,0,6.2,1.6,6.2,5.7c0,1.3,0,5.8,0,5.8
        l-5.8-0.2l0-5.7l-14.5,0l0,37.3h-5.8l-0.1-37.3l-20.3,0v-5.7l20.4,0l0-11.4H26.3l0,31.4h-6l0-31.4h-5.2V0C15.1,0,38.1,0,49.8,0z"
        />
      <path class="st0" d="M0,57.3l5.8,0L5.7,63l11.4,0v5.7c0,0-8.3,0.1-12,0C2.3,68.6,0,66.8,0,64.2C0,61.9,0,57.3,0,57.3z"/>
    </g>
  </g>
  <g>
    <path class="st1" d="M148.4,53.2c0,2-0.4,3.9-1.1,5.8c-0.7,1.9-1.8,3.5-3.3,5c-1.5,1.5-3.3,2.6-5.5,3.5c-2.2,0.9-4.8,1.3-7.8,1.3
      c-1.4,0-2.9-0.1-4.4-0.4c-1.5-0.3-3-0.6-4.5-1.1c-1.5-0.5-2.9-1-4.3-1.6c-1.4-0.6-2.6-1.3-3.7-2l3.2-10.5c2,1.5,4.3,2.6,6.7,3.5
      c2.4,0.9,4.9,1.3,7.2,1.3c2,0,3.5-0.4,4.4-1.3c0.9-0.8,1.3-1.9,1.3-3.1c0-0.6-0.1-1.2-0.3-1.8c-0.2-0.6-0.6-1.1-1.3-1.7
      c-0.7-0.6-1.6-1.2-2.7-1.8c-1.2-0.6-2.7-1.3-4.6-2.1c-2.2-0.9-4-1.9-5.5-3c-1.5-1.1-2.7-2.2-3.7-3.4c-0.9-1.2-1.6-2.5-2-3.9
      s-0.6-2.8-0.6-4.3c0-1.8,0.4-3.6,1.1-5.3c0.7-1.7,1.8-3.3,3.3-4.6c1.5-1.3,3.3-2.4,5.5-3.2c2.2-0.8,4.8-1.2,7.7-1.2
      c1.4,0,2.7,0.1,4,0.3c1.3,0.2,2.6,0.5,3.8,0.9s2.4,0.8,3.4,1.2c1,0.5,1.9,0.9,2.7,1.4l-2.9,10.3c-0.7-0.5-1.5-1-2.5-1.5
      c-0.9-0.5-1.8-0.9-2.8-1.3c-1-0.4-2-0.7-2.9-1s-1.9-0.4-2.8-0.4c-2.1,0-3.7,0.4-4.6,1.2c-0.9,0.8-1.4,1.7-1.4,2.8
      c0,0.8,0.2,1.5,0.5,2.1c0.3,0.6,0.8,1.1,1.6,1.6c0.7,0.5,1.6,1,2.8,1.5c1.1,0.5,2.4,1.1,4,1.8c2.3,1,4.3,2,5.8,3.1
      c1.6,1.1,2.8,2.2,3.7,3.4c0.9,1.2,1.6,2.5,2,3.9C148.2,50.1,148.4,51.6,148.4,53.2z"/>
    <path class="st1" d="M188.7,67.9l-3.7-9.1h-17.2l-3.7,9.1h-11.8l23.5-50.3h1.6l23.5,50.3H188.7z M176.4,38l-5,12h9.9L176.4,38z"/>
    <path class="st1" d="M219,28.6v11h17.2v10.1H219v18.1h-11.6V18H239v10.6H219z"/>
    <path class="st1" d="M248.2,67.9V18h31.6v10.6h-20v8.9H278v10.1h-18.2v9.7h20v10.6H248.2z"/>
    <path class="st1" d="M336.9,42.5c0,3.7-0.6,7.1-1.8,10.2c-1.2,3.2-3,5.9-5.4,8.2c-2.4,2.3-5.5,4.1-9.3,5.4c-3.8,1.3-8.2,2-13.4,2
      c-1.5,0-2.8,0-4,0c-1.2,0-2.4-0.1-3.5-0.1c-1.2-0.1-2.3-0.2-3.6-0.3c-1.2-0.1-2.6-0.2-4.2-0.4v-49c2.9-0.3,5.5-0.5,7.7-0.6
      c2.2-0.1,4.6-0.2,7.1-0.2c5.2,0,9.7,0.6,13.5,1.9c3.8,1.3,7,3,9.5,5.2c2.5,2.2,4.4,4.8,5.6,7.9C336.3,35.7,336.9,39,336.9,42.5z
       M324.6,42.5c0-4.5-1.4-8.1-4.2-10.7c-2.8-2.6-6.9-3.8-12.3-3.8c-1,0-1.8,0-2.5,0.1c-0.6,0-1.4,0.1-2.3,0.2v29.4
      c0.5,0,1,0.1,1.4,0.1s0.8,0.1,1.2,0.1c0.4,0,0.8,0,1.3,0c0.5,0,1,0,1.6,0c2.7,0,5.1-0.4,7-1.1c2-0.7,3.6-1.8,4.9-3.1
      c1.3-1.4,2.2-3,2.9-4.9C324.3,46.9,324.6,44.8,324.6,42.5z"/>
    <path class="st1" d="M348.3,67.9V18h11.6v49.9H348.3z"/>
    <path class="st1" d="M414.6,68.9l-30.1-27v26.1h-11.6V17.3l1.6-0.3l29.7,26.8V18h11.6v50.6L414.6,68.9z"/>
    <path class="st1" d="M458.8,67.9l-3.7-9.1h-17.2l-3.7,9.1h-11.8l23.5-50.3h1.6l23.5,50.3H458.8z M446.5,38l-5,12h9.9L446.5,38z"/>
    <path class="st1" d="M503.9,67.9l-8.5-16.3c-0.4,0-0.7,0.1-1,0.1c-0.3,0-0.6,0-1,0c-0.9,0-1.6,0-2.2,0c-0.6,0-1.3-0.1-2.1-0.1
      v16.3h-11.6V18.5c2.1-0.2,4.4-0.4,6.7-0.6c2.4-0.2,5-0.2,8-0.2c3.9,0,7.2,0.4,9.9,1.3c2.7,0.9,5,2,6.7,3.5c1.7,1.5,3,3.3,3.8,5.3
      c0.8,2,1.2,4.2,1.2,6.4c0,3-0.7,5.8-2.2,8.3c-1.5,2.5-3.6,4.6-6.3,6.2L517,67.9H503.9z M501.8,34.6c0-2.1-0.7-3.7-2.2-4.9
      c-1.5-1.2-3.5-1.7-6-1.7c-0.9,0-1.7,0-2.3,0.1s-1.4,0.1-2.2,0.3v13.8c0.8,0.1,1.4,0.1,1.9,0.2c0.5,0,1.1,0,1.8,0
      c2.8,0,5-0.6,6.6-1.9C501,39.1,501.8,37.2,501.8,34.6z"/>
    <path class="st1" d="M527.2,63.1c0-1.5,0.5-2.8,1.6-3.8c1-1,2.3-1.6,3.7-1.6c1.5,0,2.8,0.5,3.8,1.6c1,1,1.6,2.3,1.6,3.8
      c0,1.5-0.5,2.8-1.6,3.8c-1,1-2.3,1.6-3.8,1.6c-1.5,0-2.7-0.5-3.7-1.6C527.7,65.8,527.2,64.6,527.2,63.1z"/>
    <path class="st1" d="M588.9,64.1c-2.2,1.5-4.7,2.6-7.5,3.4c-2.8,0.8-5.7,1.2-8.5,1.2c-4.1,0-7.8-0.6-11.1-1.9
      c-3.3-1.3-6.2-3.1-8.6-5.4c-2.4-2.3-4.3-5-5.6-8.2c-1.3-3.2-2-6.6-2-10.2c0-3.7,0.7-7.2,2-10.3c1.3-3.2,3.2-5.9,5.6-8.2
      c2.4-2.3,5.3-4.1,8.6-5.4c3.3-1.3,7-1.9,11.1-1.9c2.9,0,5.7,0.4,8.3,1.2c2.6,0.8,5,1.9,7.3,3.2l-3.5,9.8c-1.9-1-3.8-1.9-5.8-2.5
      c-2-0.6-4.1-0.9-6.1-0.9c-2.3,0-4.4,0.3-6.3,1c-1.9,0.7-3.5,1.7-4.8,3c-1.3,1.3-2.3,2.9-3,4.7c-0.7,1.9-1.1,3.9-1.1,6.3
      c0,2.3,0.4,4.4,1.1,6.2c0.7,1.8,1.7,3.4,3,4.7c1.3,1.3,2.9,2.3,4.8,3c1.9,0.7,4,1.1,6.3,1.1c2,0,4.2-0.3,6.3-1
      c2.2-0.6,4.2-1.5,6.1-2.7L588.9,64.1z"/>
    <path class="st1" d="M644.6,43c0,3.7-0.6,7.1-1.9,10.2c-1.2,3.1-3,5.8-5.3,8.1c-2.3,2.3-5,4.1-8.1,5.4c-3.2,1.3-6.7,2-10.5,2
      s-7.4-0.7-10.5-2c-3.1-1.3-5.8-3.1-8-5.4c-2.2-2.3-3.9-5-5.1-8.1c-1.2-3.1-1.8-6.5-1.8-10.2c0-3.7,0.6-7.1,1.9-10.2
      c1.2-3.2,3-5.9,5.2-8.2c2.2-2.3,5-4.1,8.1-5.4c3.2-1.3,6.7-2,10.6-2s7.3,0.7,10.4,2c3.1,1.3,5.8,3.1,8,5.4c2.2,2.3,3.9,5,5.1,8.2
      C644,35.9,644.6,39.3,644.6,43z M632.2,43c0-2.3-0.3-4.3-1-6.2c-0.6-1.9-1.5-3.5-2.7-4.9c-1.2-1.4-2.5-2.4-4.2-3.2
      c-1.6-0.8-3.4-1.2-5.4-1.2c-2,0-3.7,0.4-5.4,1.2c-1.6,0.8-3,1.8-4.2,3.2c-1.2,1.4-2.1,3-2.7,4.9c-0.6,1.9-1,4-1,6.2
      c0,2.2,0.3,4.3,1,6.2c0.6,1.9,1.5,3.5,2.7,4.9c1.2,1.4,2.6,2.5,4.2,3.2c1.6,0.8,3.4,1.2,5.4,1.2c2,0,3.8-0.4,5.4-1.2
      c1.6-0.8,3-1.8,4.2-3.2s2.1-3,2.7-4.9C631.9,47.3,632.2,45.2,632.2,43z"/>
    <path class="st1" d="M693,67.9l-0.6-24.5l-13.8,17.5h-1.2l-14-17.5l-0.5,24.5h-11.2l2.3-50.2l1.6-0.1l22.6,28.5l22.1-28.5l1.6,0.1
      l2.4,50.2H693z"/>
  </g>
</g>
</svg>