<svg width="28" height="28" viewBox="0 0 28 28" fill="none" xmlns="http://www.w3.org/2000/svg">
<g opacity="0.5">
<path d="M8.75 26.25C9.7165 26.25 10.5 25.4665 10.5 24.5C10.5 23.5335 9.7165 22.75 8.75 22.75C7.7835 22.75 7 23.5335 7 24.5C7 25.4665 7.7835 26.25 8.75 26.25Z" fill="#011F37"/>
<path d="M21 26.25C21.9665 26.25 22.75 25.4665 22.75 24.5C22.75 23.5335 21.9665 22.75 21 22.75C20.0335 22.75 19.25 23.5335 19.25 24.5C19.25 25.4665 20.0335 26.25 21 26.25Z" fill="#011F37"/>
<path d="M24.5 6.12493H5.0925L4.375 2.44993C4.33409 2.24932 4.22413 2.0694 4.06425 1.9415C3.90437 1.81359 3.7047 1.74581 3.5 1.74993H0V3.49993H2.7825L6.125 20.2999C6.16591 20.5005 6.27587 20.6805 6.43575 20.8084C6.59563 20.9363 6.7953 21.0041 7 20.9999H22.75V19.2499H7.7175L7 15.7499H22.75C22.9523 15.7549 23.15 15.6896 23.3095 15.5651C23.4691 15.4407 23.5805 15.2648 23.625 15.0674L25.375 7.19243C25.4043 7.06261 25.4036 6.9278 25.373 6.79827C25.3424 6.66875 25.2826 6.54792 25.1982 6.44498C25.1138 6.34205 25.0071 6.25971 24.8861 6.20425C24.7651 6.14879 24.6331 6.12166 24.5 6.12493ZM22.05 13.9999H6.6675L5.4425 7.87493H23.4062L22.05 13.9999Z" fill="#011F37"/>
</g>
</svg>
