<svg width="28" height="28" viewBox="0 0 28 28" fill="none" xmlns="http://www.w3.org/2000/svg">
<g clip-path="url(#clip0_552_157)" opacity="0.5">
<path d="M14.5358 1.93703C14.3804 1.81583 14.1891 1.75 13.9921 1.75C13.7951 1.75 13.6037 1.81583 13.4484 1.93703L0.875 11.7419L1.96236 13.1172L3.5 11.9182V22.75C3.50095 23.2138 3.68563 23.6584 4.01361 23.9863C4.34159 24.3143 4.78616 24.499 5.25 24.5H22.75C23.2139 24.4991 23.6585 24.3144 23.9865 23.9864C24.3145 23.6584 24.4991 23.2138 24.5 22.75V11.9262L26.0376 13.125L27.125 11.7496L14.5358 1.93703ZM15.75 22.75H12.25V15.75H15.75V22.75ZM17.5 22.75V15.75C17.4995 15.286 17.3149 14.8412 16.9868 14.5131C16.6588 14.185 16.214 14.0005 15.75 14H12.25C11.786 14.0004 11.3412 14.1849 11.0131 14.513C10.685 14.8411 10.5005 15.286 10.5 15.75V22.75H5.25V10.5538L14 3.73751L22.75 10.563V22.75H17.5Z" fill="#011F37"/>
</g>
<defs>
<clipPath id="clip0_552_157">
<rect width="28" height="28" fill="white"/>
</clipPath>
</defs>
</svg>
