<svg width="28" height="28" viewBox="0 0 28 28" fill="none" xmlns="http://www.w3.org/2000/svg">
<g>
<path d="M26.25 19.25H1.75V21H26.25V19.25Z" fill="#011F37"/>
<path d="M26.25 22.75H1.75V24.5H26.25V22.75Z" fill="#011F37"/>
<path d="M21 8.75C20.6539 8.75 20.3155 8.85264 20.0278 9.04493C19.74 9.23722 19.5157 9.51053 19.3832 9.8303C19.2508 10.1501 19.2161 10.5019 19.2836 10.8414C19.3512 11.1809 19.5178 11.4927 19.7626 11.7374C20.0073 11.9822 20.3191 12.1489 20.6586 12.2164C20.9981 12.2839 21.3499 12.2492 21.6697 12.1168C21.9895 11.9843 22.2628 11.76 22.4551 11.4722C22.6474 11.1845 22.75 10.8461 22.75 10.5C22.75 10.0359 22.5656 9.59075 22.2374 9.26256C21.9092 8.93437 21.4641 8.75 21 8.75Z" fill="#011F37"/>
<path d="M14 14C13.3078 14 12.6311 13.7947 12.0555 13.4101C11.4799 13.0256 11.0313 12.4789 10.7664 11.8394C10.5015 11.1999 10.4322 10.4961 10.5673 9.81719C10.7023 9.13825 11.0356 8.51461 11.5251 8.02513C12.0146 7.53564 12.6383 7.2023 13.3172 7.06725C13.9961 6.9322 14.6999 7.00152 15.3394 7.26642C15.9789 7.53133 16.5256 7.97993 16.9101 8.55551C17.2947 9.13108 17.5 9.80777 17.5 10.5C17.499 11.4279 17.1299 12.3176 16.4737 12.9737C15.8176 13.6299 14.9279 13.999 14 14ZM14 8.75C13.6539 8.75 13.3155 8.85264 13.0278 9.04493C12.74 9.23722 12.5157 9.51054 12.3832 9.83031C12.2508 10.1501 12.2161 10.5019 12.2836 10.8414C12.3512 11.1809 12.5178 11.4927 12.7626 11.7374C13.0073 11.9822 13.3191 12.1489 13.6586 12.2164C13.9981 12.2839 14.3499 12.2492 14.6697 12.1168C14.9895 11.9843 15.2628 11.76 15.4551 11.4722C15.6474 11.1845 15.75 10.8461 15.75 10.5C15.7495 10.036 15.565 9.59117 15.2369 9.26308C14.9088 8.93499 14.464 8.75047 14 8.75Z" fill="#011F37"/>
<path d="M7 8.75C6.65388 8.75 6.31554 8.85264 6.02775 9.04493C5.73997 9.23722 5.51566 9.51053 5.38321 9.8303C5.25076 10.1501 5.2161 10.5019 5.28363 10.8414C5.35115 11.1809 5.51782 11.4927 5.76256 11.7374C6.00731 11.9822 6.31913 12.1489 6.65859 12.2164C6.99806 12.2839 7.34993 12.2492 7.6697 12.1168C7.98947 11.9843 8.26278 11.76 8.45507 11.4722C8.64737 11.1845 8.75 10.8461 8.75 10.5C8.75 10.0359 8.56563 9.59075 8.23744 9.26256C7.90925 8.93437 7.46413 8.75 7 8.75Z" fill="#011F37"/>
<path d="M24.5 17.5H3.5C3.03623 17.4988 2.5918 17.3141 2.26386 16.9861C1.93593 16.6582 1.75118 16.2138 1.75 15.75V5.25C1.75118 4.78623 1.93593 4.3418 2.26386 4.01386C2.5918 3.68593 3.03623 3.50118 3.5 3.5H24.5C24.9638 3.50118 25.4082 3.68593 25.7361 4.01386C26.0641 4.3418 26.2488 4.78623 26.25 5.25V15.75C26.2494 16.2139 26.0648 16.6587 25.7367 16.9867C25.4087 17.3148 24.9639 17.4994 24.5 17.5ZM24.5 5.25H3.5V15.75H24.5V5.25Z" fill="#011F37"/>
</g>
</svg>
