<svg width="28" height="28" viewBox="0 0 28 28" fill="none" xmlns="http://www.w3.org/2000/svg">
<g opacity="0.5">
<path d="M25.375 24.1376L18.7669 17.5295C20.3548 15.6232 21.1466 13.1781 20.9776 10.7029C20.8086 8.22765 19.6919 5.91284 17.8597 4.24001C16.0275 2.56718 13.6209 1.66512 11.1405 1.72148C8.66014 1.77785 6.29699 2.7883 4.54266 4.54263C2.78833 6.29696 1.77788 8.66011 1.72152 11.1405C1.66515 13.6208 2.56721 16.0274 4.24004 17.8596C5.91287 19.6919 8.22768 20.8086 10.7029 20.9776C13.1782 21.1466 15.6233 20.3548 17.5296 18.7669L24.1377 25.375L25.375 24.1376ZM3.49999 11.375C3.49999 9.81743 3.96185 8.29488 4.82717 6.99985C5.69249 5.70481 6.92239 4.69545 8.36136 4.09941C9.80033 3.50337 11.3837 3.34742 12.9113 3.65128C14.4389 3.95514 15.8421 4.70516 16.9435 5.8065C18.0448 6.90784 18.7948 8.31103 19.0987 9.83863C19.4025 11.3662 19.2466 12.9496 18.6505 14.3886C18.0545 15.8276 17.0451 17.0575 15.7501 17.9228C14.4551 18.7881 12.9325 19.25 11.375 19.25C9.28712 19.2476 7.28543 18.4172 5.80908 16.9409C4.33274 15.4645 3.50231 13.4628 3.49999 11.375Z" fill="#011F37"/>
</g>
</svg>
