<svg width="28" height="28" viewBox="0 0 28 28" fill="none" xmlns="http://www.w3.org/2000/svg">
<g >
<path d="M10.5 3.5C11.3653 3.5 12.2112 3.75659 12.9306 4.23732C13.6501 4.71805 14.2108 5.40133 14.542 6.20076C14.8731 7.00019 14.9597 7.87985 14.7909 8.72852C14.6221 9.57719 14.2054 10.3567 13.5936 10.9686C12.9817 11.5804 12.2022 11.9971 11.3535 12.1659C10.5049 12.3347 9.62519 12.2481 8.82576 11.917C8.02634 11.5858 7.34305 11.0251 6.86232 10.3056C6.38159 9.58615 6.125 8.74029 6.125 7.875C6.125 6.71468 6.58594 5.60188 7.40641 4.78141C8.22688 3.96094 9.33968 3.5 10.5 3.5ZM10.5 1.75C9.28859 1.75 8.10439 2.10923 7.09714 2.78225C6.08988 3.45527 5.30483 4.41187 4.84124 5.53106C4.37765 6.65026 4.25636 7.88179 4.49269 9.06993C4.72903 10.2581 5.31238 11.3494 6.16897 12.206C7.02557 13.0626 8.11694 13.646 9.30507 13.8823C10.4932 14.1186 11.7247 13.9973 12.8439 13.5338C13.9631 13.0702 14.9197 12.2851 15.5928 11.2779C16.2658 10.2706 16.625 9.08641 16.625 7.875C16.625 6.25055 15.9797 4.69263 14.831 3.54397C13.6824 2.39531 12.1245 1.75 10.5 1.75Z" fill="#011F37"/>
<path d="M19.25 26.25H17.5V21.875C17.5 20.7147 17.0391 19.6019 16.2186 18.7814C15.3981 17.9609 14.2853 17.5 13.125 17.5H7.875C6.71468 17.5 5.60188 17.9609 4.78141 18.7814C3.96094 19.6019 3.5 20.7147 3.5 21.875V26.25H1.75V21.875C1.75 20.2505 2.39531 18.6926 3.54397 17.544C4.69263 16.3953 6.25055 15.75 7.875 15.75H13.125C14.7495 15.75 16.3074 16.3953 17.456 17.544C18.6047 18.6926 19.25 20.2505 19.25 21.875V26.25Z" fill="#011F37"/>
<path d="M28 3.5H19.25V5.25H28V3.5Z" fill="#011F37"/>
<path d="M28 7.875H19.25V9.625H28V7.875Z" fill="#011F37"/>
<path d="M25.375 12.25H19.25V14H25.375V12.25Z" fill="#011F37"/>
</g>
</svg>
