<svg width="24" height="24" viewBox="0 0 24 24" fill="none" xmlns="http://www.w3.org/2000/svg">
<path d="M12.7101 12.0003L9.17006 15.5403C8.98381 15.7277 8.87926 15.9811 8.87926 16.2453C8.87926 16.5095 8.98381 16.7629 9.17006 16.9503C9.26302 17.044 9.37362 17.1184 9.49548 17.1692C9.61734 17.22 9.74804 17.2461 9.88006 17.2461C10.0121 17.2461 10.1428 17.22 10.2646 17.1692C10.3865 17.1184 10.4971 17.044 10.5901 16.9503L14.8301 12.7103C14.9238 12.6173 14.9982 12.5067 15.0489 12.3849C15.0997 12.263 15.1259 12.1323 15.1259 12.0003C15.1259 11.8683 15.0997 11.7376 15.0489 11.6157C14.9982 11.4939 14.9238 11.3833 14.8301 11.2903L10.5901 7.0003C10.4966 6.90762 10.3858 6.83429 10.264 6.78453C10.1421 6.73476 10.0117 6.70953 9.88006 6.7103C9.74845 6.70953 9.61799 6.73476 9.49615 6.78453C9.37431 6.83429 9.2635 6.90762 9.17006 7.0003C8.9838 7.18766 8.87926 7.44111 8.87926 7.7053C8.87926 7.96948 8.9838 8.22293 9.17006 8.4103L12.7101 12.0003Z" fill="#011F37"/>
</svg>
