<svg width="32" height="32" viewBox="0 0 32 32" fill="none" xmlns="http://www.w3.org/2000/svg">
<g clip-path="url(#clip0_1076_25838)">
<path d="M27 28V16H19V28H15V12H7V28H4V2H2V28C2 28.5304 2.21071 29.0391 2.58579 29.4142C2.96086 29.7893 3.46957 30 4 30H30V28H27ZM13 14V20H9V14H13ZM25 18V24H21V18H25Z" fill="#125F9B"/>
<path d="M22.7857 14.0002C22.3616 14.0004 21.9486 13.865 21.607 13.6137L11.2042 5.98724L8.24195 10.0002L6.63745 8.80674L9.61865 4.80674C9.92869 4.38923 10.3893 4.10907 10.9026 4.02579C11.416 3.94251 11.9415 4.06267 12.3677 4.36074L22.7891 12.0007L26.3936 7.13944L28.0001 8.33084L24.3956 13.1919C24.2091 13.4431 23.9663 13.6471 23.6867 13.7875C23.4071 13.9278 23.0985 14.0007 22.7857 14.0002Z" fill="#125F9B"/>
</g>
<defs>
<clipPath id="clip0_1076_25838">
<rect width="32" height="32" fill="white"/>
</clipPath>
</defs>
</svg>
