<svg width="32" height="32" viewBox="0 0 32 32" fill="none" xmlns="http://www.w3.org/2000/svg">
<path d="M29.3333 4L27.1066 6.22667L24.8933 4L22.6666 6.22667L20.44 4L18.2266 6.22667L16 4L13.7733 6.22667L11.56 4L9.33329 6.22667L7.10663 4L4.89329 6.22667L2.66663 4V25.3333C2.66663 26.8 3.86663 28 5.33329 28H26.6666C28.1333 28 29.3333 26.8 29.3333 25.3333V4ZM14.6666 25.3333H5.33329V17.3333H14.6666V25.3333ZM26.6666 25.3333H17.3333V22.6667H26.6666V25.3333ZM26.6666 20H17.3333V17.3333H26.6666V20ZM26.6666 14.6667H5.33329V10.6667H26.6666V14.6667Z" fill="#125F9B"/>
</svg>
