<svg width="32" height="32" viewBox="0 0 32 32" fill="none" xmlns="http://www.w3.org/2000/svg">
<g clip-path="url(#clip0_1076_25811)">
<path d="M23 16H21V18H23V16Z" fill="#125F9B"/>
<path d="M17 16H9V18H17V16Z" fill="#125F9B"/>
<path d="M23 12H21V14H23V12Z" fill="#125F9B"/>
<path d="M17 12H9V14H17V12Z" fill="#125F9B"/>
<path d="M23 8H9V10H23V8Z" fill="#125F9B"/>
<path d="M25 2H7C6.46973 2.00053 5.96133 2.21141 5.58637 2.58637C5.21141 2.96133 5.00053 3.46973 5 4V29C5 29.2652 5.10536 29.5196 5.29289 29.7071C5.48043 29.8946 5.73478 30 6 30H7C7.15526 30.0001 7.30841 29.964 7.44728 29.8946C7.58615 29.8251 7.70692 29.7243 7.8 29.6L10 26.667L12.2 29.6C12.2971 29.7182 12.4192 29.8135 12.5576 29.8789C12.6959 29.9442 12.847 29.9781 13 29.9781C13.153 29.9781 13.3041 29.9442 13.4424 29.8789C13.5808 29.8135 13.7029 29.7182 13.8 29.6L16 26.667L18.2 29.6C18.2971 29.7182 18.4192 29.8135 18.5576 29.8789C18.6959 29.9442 18.847 29.9781 19 29.9781C19.153 29.9781 19.3041 29.9442 19.4424 29.8789C19.5808 29.8135 19.7029 29.7182 19.8 29.6L22 26.667L24.2 29.6C24.2931 29.7242 24.4139 29.8251 24.5527 29.8945C24.6916 29.9639 24.8447 30.0001 25 30H26C26.2652 30 26.5196 29.8946 26.7071 29.7071C26.8946 29.5196 27 29.2652 27 29V4C26.9994 3.46975 26.7885 2.9614 26.4135 2.58646C26.0386 2.21152 25.5302 2.00061 25 2ZM25 27.333L22.8 24.4C22.7029 24.2818 22.5808 24.1865 22.4424 24.1211C22.3041 24.0558 22.153 24.0219 22 24.0219C21.847 24.0219 21.6959 24.0558 21.5576 24.1211C21.4192 24.1865 21.2971 24.2818 21.2 24.4L19 27.333L16.8 24.4C16.7029 24.2818 16.5808 24.1865 16.4424 24.1211C16.3041 24.0558 16.153 24.0219 16 24.0219C15.847 24.0219 15.6959 24.0558 15.5576 24.1211C15.4192 24.1865 15.2971 24.2818 15.2 24.4L13 27.333L10.8 24.4C10.7029 24.2818 10.5808 24.1865 10.4424 24.1211C10.3041 24.0558 10.153 24.0219 10 24.0219C9.847 24.0219 9.69589 24.0558 9.55756 24.1211C9.41924 24.1865 9.29712 24.2818 9.2 24.4L7 27.333V4H25V27.333Z" fill="#125F9B"/>
</g>
<defs>
<clipPath id="clip0_1076_25811">
<rect width="32" height="32" fill="white"/>
</clipPath>
</defs>
</svg>
