<svg width="18" height="20" viewBox="0 0 18 20" fill="none" xmlns="http://www.w3.org/2000/svg">
<path d="M0 5.1291C0 4.33477 0.340426 3.90356 1.13475 3.90356C1.8156 3.90356 3.88085 3.90356 3.88085 3.90356V5.19718H1.29362V9.10073H10.4851V10.417H5.96879V18.1787H11.1887L11.2113 15.6142H6.53617V14.2979H15.773V10.3943H13.1177V9.10073C13.1177 9.10073 15.0922 9.07803 15.9546 9.10073C16.5901 9.12342 17.044 9.62271 17.0667 10.3263C17.0894 11.688 17.0894 13.027 17.0667 14.3887C17.044 15.1149 16.522 15.5688 15.7957 15.5915C14.8199 15.5915 12.4823 15.5915 12.4823 15.5915C12.4823 15.5915 12.4823 17.2936 12.4823 17.9745C12.4823 18.9504 12.0284 19.4951 11.166 19.4951C8.51064 19.4951 3.31348 19.4951 3.31348 19.4951L3.29078 18.2014H4.60709V10.417C4.60709 10.417 2.54184 10.3943 1.65674 10.417C0.862411 10.4397 0.27234 10.2128 0 9.41846C0 7.92059 0 6.62697 0 5.1291Z" fill="#FFAA02"/>
<path d="M11.3021 0C11.9603 0 12.4823 0.27234 12.4823 1.22553C12.4823 1.95177 12.4823 3.90355 12.4823 3.90355C12.4823 3.90355 14.7064 3.90355 15.6596 3.92624C16.5901 3.92624 17.0667 4.28936 17.0667 5.21986C17.0667 5.51489 17.0667 6.53617 17.0667 6.53617L15.7504 6.49078V5.19716H12.4596V13.6624H11.1433L11.1206 5.19716H6.51347V3.90355H11.1433V1.31631H5.96879V8.44255H4.60709V1.31631H3.42695V0C3.42695 0 8.64681 0 11.3021 0Z" fill="#FFAA02"/>
<path d="M0 13.0042H1.31631L1.29362 14.2978H3.88085V15.5914C3.88085 15.5914 1.99716 15.6141 1.15745 15.5914C0.521986 15.5687 0 15.1602 0 14.5701C0 14.0481 0 13.0042 0 13.0042Z" fill="#FFAA02"/>
</svg>
